<?xml version="1.0" encoding="utf-8"?>
<!-- Generator: Adobe Illustrator 19.1.0, SVG Export Plug-In . SVG Version: 6.00 Build 0)  -->
<!DOCTYPE svg PUBLIC "-//W3C//DTD SVG 1.1//EN" "http://www.w3.org/Graphics/SVG/1.1/DTD/svg11.dtd">
<svg version="1.1" id="Layer_1" xmlns="http://www.w3.org/2000/svg" xmlns:xlink="http://www.w3.org/1999/xlink" x="0px" y="0px"
	 viewBox="0 0 1950.95 797.89" style="enable-background:new 0 0 1950.95 797.89;" xml:space="preserve">
<g>
	<path style="fill:#FFFFFF;" d="M1554.374,739.119c10.269-0.488,20.566-0.649,30.803-1.521
		c41.107-3.501,80.957-12.658,118.616-29.565c112.272-50.405,187.552-133.435,214.546-254.632
		c23.596-105.944-1.221-202.736-68.158-287.943c-51.262-65.254-118.184-107.929-198.256-129.122
		c-71.763-18.994-143.274-18.334-213.714,7.31c-24.188,8.805-47.041,20.286-68.603,34.343c-1.371,0.894-2.765,1.751-4.504,2.851
		c-4.309-6.318-8.506-12.474-13.089-19.194c4.968-3.213,9.721-6.457,14.634-9.436c40.629-24.631,84.436-40.687,131.369-47.97
		c30.25-4.695,60.639-5.353,91.18-2.659c45.874,4.047,90.067,14.775,131.668,34.407c115.859,54.673,193.04,142.391,221.045,268.647
		c22.511,101.489,2.615,196.464-55.596,282.467c-54.924,81.147-131.161,133.568-225.197,160.132
		c-38.373,10.84-77.707,15.159-117.586,14.47c-8.99-0.155-17.985-0.023-27.756-0.023c0.887-2.116,1.523-3.748,2.246-5.341
		c34.179-75.312,68.329-150.637,102.65-225.884c1.982-4.345,1.914-7.683-0.17-11.983c-39.916-82.374-79.692-164.815-119.345-247.315
		c-2.019-4.201-4.347-5.629-8.999-5.593c-29.498,0.228-58.999,0.116-88.499,0.116c-1.983,0-3.965,0-6.745,0c0,2.045,0,3.796,0,5.546
		c0,59.167-0.136,118.334,0.156,177.499c0.042,8.375,1.044,17.096,3.554,25.04c6.413,20.297,22.35,28.704,42.323,31.147
		c17.141,2.097,33.5-0.727,49.215-7.713c1.027-0.457,2.109-0.791,3.761-1.402c0,7.971,0.098,15.408-0.107,22.837
		c-0.031,1.107-1.256,2.735-2.321,3.177c-29.086,12.061-58.344,13.357-86.996-0.738c-21.049-10.355-31.769-28.716-35.238-51.436
		c-1.025-6.714-1.23-13.604-1.241-20.414c-0.092-58.833-0.053-117.667-0.053-176.5c0-2.124,0-4.248,0-6.87
		c-13.997,0-27.42,0-41.203,0c0-8.403,0-16.31,0-25.029c4.767,0,9.519,0,14.27,0c7.333,0,14.677-0.233,21.996,0.09
		c4.109,0.181,5.027-1.346,5.008-5.161c-0.136-26.499-0.071-53-0.071-79.5c0-1.961,0-3.922,0-6.2c9.127,0,17.703,0,26.758,0
		c0,30.023,0,59.952,0,90.77c2.374,0,4.283,0,6.192,0c36.5,0,73,0.062,109.5-0.087c4.017-0.016,6.059,1.09,7.824,4.906
		c37.724,81.562,75.618,163.045,113.483,244.542c0.76,1.635,1.578,3.243,2.717,5.578c1.051-2.218,1.871-3.74,2.513-5.334
		c32.843-81.477,65.705-162.946,98.399-244.483c1.641-4.092,3.642-5.451,7.965-5.23c7.638,0.39,15.311,0.109,23.986,0.109
		c-70.164,166.822-136.888,334.441-215.879,496.773C1553.74,738.106,1554.057,738.612,1554.374,739.119z"/>
	<path style="fill:#FFFFFF;" d="M512.729,462.745c6.23,5.518,12.194,10.801,18.411,16.307
		c-20.844,22.765-44.655,40.417-74.699,48.018c-46.719,11.821-90.358,5.791-128.853-24.807
		c-28.496-22.651-45.032-52.813-51.064-88.395c-6.689-39.456-1.828-77.48,18.695-112.442c22.055-37.572,54.442-60.845,98.104-66.266
		c58.511-7.266,109.626,22.917,132.661,77.291c10.172,24.013,14.071,49.169,13.772,75.09c-0.025,2.128-0.539,4.25-0.891,6.853
		c-78.672,0-157.094,0-235.426,0c-5.167,31.378,24.023,80.451,58.577,99.632C400.495,515.387,465.014,514.74,512.729,462.745z
		 M510.051,369.828c0-2.143,0.157-3.804-0.024-5.427c-1.958-17.487-6.261-34.313-13.989-50.213
		c-28.651-58.95-94.213-67.057-136.53-42.27c-29.173,17.088-45.544,43.557-53.471,75.735c-1.759,7.139-2.569,14.512-3.884,22.174
		C372.089,369.828,440.825,369.828,510.051,369.828z"/>
	<path style="fill:#FFFFFF;" d="M642.386,385.09c3.528-64.467,30.519-112.877,89.334-138.76
		c80.627-35.481,175.636,6.806,199.208,98.183c16.861,65.359-10.876,134.408-67.418,167.721
		c-82.874,48.828-195.069,7.781-217.246-96.865C644.069,405.01,643.528,394.3,642.386,385.09z M906.53,384.093
		c0.085-20.744-4.32-40.382-13.486-58.906c-36.112-72.983-131.593-88.416-187.237-30.291
		c-34.186,35.71-43.461,93.329-22.737,141.237c28.523,65.934,108.526,91.802,167.802,53.679
		C889.102,465.226,905.298,428.424,906.53,384.093z"/>
	<path style="fill:#FFFFFF;" d="M1225.191,286.87c-6.665,6.265-13.071,12.288-19.767,18.582c-4.234-3.932-8.893-8.385-13.688-12.687
		c-18.208-16.339-38.697-28.377-63.267-31.943c-51.705-7.503-99.479,18.881-121.373,66.711
		c-25.108,54.852-9.453,121.207,36.912,156.455c39.898,30.332,93.964,31.219,135.596,1.638
		c10.508-7.466,19.882-16.528,30.123-25.148c5.403,4.819,11.341,10.113,17.679,15.765c-16.155,18.637-34.309,34.244-56.738,44.219
		c-28.771,12.795-58.853,15.46-89.45,8.877c-63.787-13.725-106.97-67.321-113.963-127.235
		c-8.275-70.9,32.459-133.956,91.043-157.483C1113.076,222.623,1177.808,233.696,1225.191,286.87z"/>
	<path style="fill:#FFFFFF;" d="M0,240.871c10.024,0,19.19-0.197,28.331,0.186c1.596,0.067,3.788,2.276,4.529,4.001
		c14.109,32.863,28.043,65.801,42.011,98.724c20.594,48.543,41.184,97.087,61.785,145.626c0.754,1.777,1.611,3.511,2.796,6.079
		c8.474-19.729,16.558-38.509,24.609-57.302c27.45-64.068,54.931-128.123,82.231-192.255c1.716-4.03,3.749-5.388,8.054-5.174
		c7.802,0.388,15.637,0.11,24.257,0.11c-0.728,1.915-1.209,3.392-1.838,4.804c-41.268,92.708-82.569,185.402-123.744,278.151
		c-1.473,3.317-3.277,4.476-6.743,4.291c-4.652-0.248-9.342-0.289-13.988,0.012c-3.561,0.231-5.21-1.163-6.628-4.374
		c-17.616-39.868-35.39-79.665-53.118-119.483C49.065,351.529,25.589,298.792,2.12,246.051C1.458,244.565,0.884,243.039,0,240.871z"
		/>
	<path style="fill:#FFFFFF;" d="M604.673,525.572c-8.961,0-17.415,0-26.212,0c0-135.859,0-271.506,0-407.474
		c8.72,0,17.289,0,26.212,0C604.673,253.867,604.673,389.513,604.673,525.572z"/>
	<path style="fill:#FFFFFF;" d="M1290.505,525.568c-8.943,0-17.397,0-26.264,0c0-94.845,0-189.474,0-284.423
		c8.752,0,17.331,0,26.264,0C1290.505,335.865,1290.505,430.512,1290.505,525.568z"/>
	<path style="fill:#FFFFFF;" d="M553.204,667.925c0-7.465,0-14.931,0-22.798c3.525,0,6.758,0,10.364,0c0,50.326,0,100.71,0,151.401
		c-3.352,0-6.583,0-10.29,0c0-20.279,0-40.362,0-60.444c-0.321-0.147-0.642-0.295-0.963-0.442c-1.061,1.347-2.153,2.672-3.178,4.046
		c-15.044,20.164-36.813,27.948-59.368,21.216c-22.888-6.831-39.153-27.659-40.716-51.573c-1.292-19.769,3.283-37.446,17.801-51.58
		c24.173-23.535,61.142-20.547,82.02,6.436c1.079,1.395,2.124,2.816,3.185,4.225C552.439,668.248,552.821,668.086,553.204,667.925z
		 M460.419,702.262c0.157,2.361,0.16,5.21,0.562,8.002c2.745,19.088,12.016,33.557,30.733,40.061
		c18.539,6.442,34.876,1.3,48.297-12.452c11.846-12.138,15.259-27.164,13.189-43.77c-3.948-31.669-38.592-51.201-67.084-37.39
		C467.449,665.763,461.012,682.214,460.419,702.262z"/>
	<path style="fill:#FFFFFF;" d="M816.7,706.879c-33.135,0-64.749,0-96.288,0c-2.285,13.39,8.386,32.196,22.47,40.365
		c14.357,8.328,40.145,10.55,62.338-11.99c2.28,1.984,4.589,3.992,7.136,6.208c-13.277,15.112-29.512,22.397-49.221,21.605
		c-29.889-1.202-53.239-24.424-54.96-54.376c-0.958-16.678,2.17-32.303,12.679-45.628c13.85-17.561,32.172-24.627,54.035-19.764
		c21.841,4.858,33.796,20.169,38.906,41.127C815.502,691.425,815.702,698.79,816.7,706.879z M720.141,696.885
		c27.849,0,55.717,0,83.553,0c2.295-22.887-17.54-44.894-40.374-45.132C739.913,651.509,718.445,673.811,720.141,696.885z"/>
	<path style="fill:#FFFFFF;" d="M436.845,706.901c-32.177,0-63.767,0-95.29,0c-1.981,13.353,8.268,32.575,22.298,39.979
		c23.647,12.478,44.304,6.018,62.737-11.701c2.32,2.049,4.553,4.023,7.071,6.247c-10.115,11.671-22.348,19.09-37.491,21.121
		c-29.896,4.009-55.418-11.999-63.956-39.869c-9.247-30.186,3.159-62.371,29.102-75.501c28.624-14.486,62.526,0.456,72.47,32.006
		C436.551,687.954,437.844,696.929,436.845,706.901z M425.667,696.922c-1.897-17.659-7.399-32.71-23.643-40.886
		c-14.589-7.343-29.202-5.879-42.299,3.989c-12.064,9.089-17.539,21.825-18.83,36.898
		C369.376,696.922,397.099,696.922,425.667,696.922z"/>
	<path style="fill:#FFFFFF;" d="M1398.704,735.128c2.483,2.187,4.717,4.154,7.17,6.316c-13.145,14.991-29.338,22.382-49.076,21.629
		c-32.749-1.248-56.938-28.423-55.342-62.201c1.029-21.759,9.088-39.991,28.287-51.584c29.301-17.693,65.593-3.376,76.128,29.654
		c2.848,8.928,4.092,18.056,3.269,27.935c-32.136,0-63.892,0-95.591,0c-1.5,14.953,9.628,33.508,24.28,41.16
		C1353.086,756.003,1377.891,756.652,1398.704,735.128z M1397.358,696.826c0.275-26.618-19.651-46.715-44.261-45.008
		c-21.451,1.488-42.482,25.475-39.385,45.008C1341.59,696.826,1369.477,696.826,1397.358,696.826z"/>
	<path style="fill:#FFFFFF;" d="M1268.648,72.493c5.357,15.23,10.559,30.021,16.008,45.514c8.207-6.213,15.9-11.978,23.491-17.874
		c0.77-0.598,1.145-1.958,1.309-3.026c0.303-1.969,0.705-4.05,0.377-5.967c-1.369-8.012,3.034-12.282,9.901-15.57
		c1.446,4.409,3.159,8.697,4.225,13.14c1.169,4.874,3.761,8.206,8.153,10.59c3.904,2.119,7.497,4.811,11.299,7.297
		c-4.991,6.133-10.449,9.008-17.932,5.518c-5.09-2.374-9.316-0.918-13.547,2.727c-5.773,4.972-12.106,9.295-18.83,14.372
		c13.16,9.453,25.801,18.533,38.961,27.986c-3.503,2.679-6.57,5.369-9.999,7.465c-1.23,0.752-3.473,0.491-5.019-0.018
		c-15.006-4.943-29.922-10.161-44.977-14.947c-2.096-0.667-5.188-0.087-7.143,1.065c-4.573,2.695-8.72,6.11-13.068,9.192
		c-4.796,3.4-8.694,3.204-11.346-0.507c-2.575-3.604-1.486-7.418,3.254-10.959c4.27-3.19,8.783-6.084,12.83-9.53
		c1.47-1.251,2.735-3.745,2.678-5.629c-0.46-15.154-1.045-30.312-2.074-45.435c-0.346-5.079,0.87-8.588,5.342-11.056
		C1264.54,75.74,1266.296,74.19,1268.648,72.493z"/>
	<path style="fill:#FFFFFF;" d="M1188.809,792.823c1.411-3.429,2.531-6.153,3.511-8.535c6.032,1.121,11.655,2.489,17.359,3.15
		c8.578,0.994,15.944-1.957,20.99-8.985c3.658-5.095,6.65-10.72,9.427-16.361c0.733-1.49,0.04-4.139-0.793-5.875
		c-16.832-35.093-33.782-70.13-50.7-105.182c-0.854-1.77-1.632-3.576-2.852-6.258c4.02,0,7.481-0.421,10.746,0.196
		c1.413,0.267,2.796,2.499,3.561,4.133c14.666,31.331,29.236,62.707,43.835,94.07c0.689,1.48,1.468,2.917,2.657,5.267
		c1.639-3.917,2.977-7.02,4.241-10.153c11.51-28.525,23.009-57.055,34.506-85.585c3.657-9.074,3.968-9.242,14.818-7.353
		c-3.525,8.503-6.984,16.917-10.498,25.309c-12.845,30.676-25.66,61.365-38.612,91.996c-2.261,5.347-4.78,10.649-7.78,15.608
		c-10.403,17.197-25.374,23.03-44.812,17.742C1195.395,795.187,1192.464,794.045,1188.809,792.823z"/>
	<path style="fill:#FFFFFF;" d="M933.092,760.322c-3.163,0-6.259,0-9.866,0c-0.092-2.094-0.248-4.029-0.25-5.964
		c-0.018-19.999,0.062-39.999-0.068-59.997c-0.03-4.642-0.315-9.367-1.227-13.904c-6.558-32.606-42.115-34.094-59.519-21.411
		c-11.872,8.652-16.909,20.701-17.034,34.967c-0.176,19.998-0.048,39.998-0.05,59.997c0,1.966,0,3.932,0,6.22
		c-3.701,0-6.924,0-10.445,0c0-38.432,0-76.663,0-115.203c3.369,0,6.473,0,10.296,0c0,6.467,0,12.987,0,19.508
		c0.351,0.081,0.702,0.162,1.054,0.243c0.959-1.247,1.95-2.471,2.873-3.744c11.854-16.361,31.616-22.892,52.491-17.336
		c18.442,4.909,30.654,18.87,31.589,39.605c1.14,25.272,0.473,50.626,0.58,75.945C933.516,759.399,933.402,759.551,933.092,760.322z
		"/>
	<path style="fill:#FFFFFF;" d="M687.809,760.317c-3.406,0-6.494,0-10.21,0c0-6.617,0-13.017,0-19.416
		c-0.334-0.096-0.667-0.192-1.001-0.289c-0.945,1.229-1.916,2.438-2.831,3.689c-12.162,16.624-33.166,23.091-54.045,16.629
		c-18.566-5.746-30.231-21.819-30.464-42.834c-0.258-23.32-0.084-46.645-0.082-69.967c0-0.959,0.167-1.917,0.278-3.11
		c3.501,0,6.729,0,10.48,0c0,2.081,0,3.87,0,5.658c0,20.657-0.088,41.315,0.07,61.971c0.035,4.624,0.449,9.357,1.525,13.839
		c3.527,14.7,13.889,24.224,28.002,26.314c17.542,2.597,33.768-4.075,41.593-18.386c3.244-5.934,5.691-13.056,5.943-19.734
		c0.795-21.128,0.383-42.301,0.436-63.457c0.005-1.96,0.001-3.92,0.001-6.19c3.683,0,6.773,0,10.306,0
		C687.809,683.31,687.809,721.524,687.809,760.317z"/>
	<path style="fill:#FFFFFF;" d="M1149.651,605.649c-5.245-0.655-10.475-1.75-15.728-1.878c-13.542-0.33-21.027,5.516-23.334,18.849
		c-1.205,6.965-0.902,14.192-1.314,21.938c13.892,0,26.967,0,40.385,0c0,3.504,0,6.406,0,9.86c-13.1,0-26.179,0-39.992,0
		c0,35.549,0,70.57,0,105.86c-3.822,0-6.903,0-10.751,0c0-35.16,0-70.186,0-105.638c-5.863,0-10.972,0-16.506,0
		c0-3.306,0-6.197,0-9.925c4.004,0,8.103-0.164,12.181,0.052c3.308,0.175,4.345-1.139,4.324-4.345
		c-0.037-5.656-0.257-11.401,0.595-16.956c3.374-21.973,19.385-32.971,41.916-29.192c0.328,0.055,0.649,0.15,0.976,0.212
		C1151.088,596.119,1151.292,596.433,1149.651,605.649z"/>
	<path style="fill:#FFFFFF;" d="M205.948,654.644c-5.857,0-10.967,0-16.491,0c0-3.304,0-6.196,0-9.93
		c3.993,0,8.09-0.159,12.168,0.05c3.281,0.169,4.367-1.092,4.34-4.327c-0.047-5.655-0.286-11.407,0.594-16.954
		c3.504-22.079,19.364-32.977,41.904-29.215c0.328,0.055,0.649,0.15,0.976,0.212c8.719,1.637,8.985,2.048,7.239,11.201
		c-5.071-0.665-10.129-1.772-15.214-1.911c-14.106-0.385-21.433,5.598-24.047,19.318c-0.588,3.085-0.621,6.292-0.718,9.448
		c-0.116,3.802-0.028,7.61-0.028,12.029c13.535,0,26.609,0,40.028,0c0,3.509,0,6.409,0,9.865c-13.129,0-26.207,0-40.005,0
		c0,35.558,0,70.582,0,105.861c-3.814,0-6.9,0-10.746,0C205.948,725.119,205.948,690.091,205.948,654.644z"/>
	<path style="fill:#FFFFFF;" d="M972.012,654.553c0,15.385,0,29.864,0,44.344c0,9.332,0.301,18.676-0.058,27.994
		c-0.927,24.024,16.158,27.911,32.228,24.419c2.549-0.554,5.014-1.492,7.548-2.262c1.624,9.199,1.019,10.875-7.573,12.144
		c-6.632,0.98-13.699,1.281-20.249,0.096c-14.373-2.6-22.521-14.013-22.624-30.443c-0.145-23.163-0.041-46.327-0.044-69.49
		c0-1.986,0-3.972,0-6.495c-5.495,0-10.735,0-16.431,0c0-3.41,0-6.293,0-9.999c5.152,0,10.516,0,16.357,0c0-12.71,0-24.635,0-36.981
		c3.704,0,6.92,0,10.847,0c0,9.347,0,18.624,0,27.901c0,8.937,0,8.937,9.047,8.937c10.45,0,20.9,0,31.598,0c0,3.497,0,6.4,0,9.835
		C999.164,654.553,985.913,654.553,972.012,654.553z"/>
	<path style="fill:#FFFFFF;" d="M278.005,760.319c-1.608,0.107-2.575,0.213-3.543,0.226c-2.149,0.028-4.298,0.009-6.83,0.009
		c0-38.521,0-76.739,0-115.397c3.132,0,6.354,0,10.247,0c0,10.056,0,20.242,0,30.428c11.799-19.513,27.165-32.456,51.338-32.809
		c0,4.081,0,7.775,0,11.473c-4.253,0.636-8.416,0.945-12.422,1.909c-20.613,4.961-35.807,22.652-37.706,45.226
		c-1.169,13.904-0.81,27.939-1.068,41.917C277.92,748.787,278.005,754.275,278.005,760.319z"/>
	<path style="fill:#FFFFFF;" d="M1489.023,642.743c-1.836,4.033-3.163,7.426-4.932,10.569c-0.601,1.068-2.233,1.894-3.536,2.178
		c-22.247,4.833-37.095,20.257-40.476,43.15c-1.208,8.177-1.138,16.571-1.272,24.872c-0.196,12.115-0.05,24.236-0.05,36.697
		c-3.668,0-6.88,0-10.426,0c0-38.351,0-76.542,0-115.112c3.341,0,6.559,0,10.31,0c0,10.205,0,20.282,0,30.358
		C1450.053,656.359,1465.119,643.664,1489.023,642.743z"/>
	<path style="fill:#FFFFFF;" d="M1161.55,594.721c3.769,0,6.726,0,10.006,0c0,55.176,0,110.081,0,165.411c-3.111,0-6.335,0-10.006,0
		C1161.55,705.161,1161.55,650.022,1161.55,594.721z"/>
</g>
</svg>
